<?xml version="1.0" standalone="no"?>
<!DOCTYPE svg PUBLIC "-//W3C//DTD SVG 1.1//EN" "http://www.w3.org/Graphics/SVG/1.1/DTD/svg11.dtd" >
<svg xmlns="http://www.w3.org/2000/svg">
<metadata>
This is a custom SVG webfont generated by Typotheque.
</metadata>
<defs>
<font id="typotheque_webfonts_service" horiz-adv-x="582" >
<font-face units-per-em="1000" ascent="780" descent="-220" />
<missing-glyph horiz-adv-x="261" />
<glyph unicode=" "  horiz-adv-x="261" />
<glyph unicode="&#x09;" horiz-adv-x="261" />
<glyph unicode="&#xa0;" horiz-adv-x="261" />
<glyph unicode="A" horiz-adv-x="671" d="M290 707h107l257 -707h-89l-94 264h-279l-105 -264h-87zM449 330l-110 319l-122 -319h232z" />
<glyph unicode="B" horiz-adv-x="636" d="M106 707h193q60 0 103.5 -13.5t71 -37t41 -56t13.5 -71.5q0 -57 -26.5 -97.5t-71.5 -56.5v-3q28 -5 54.5 -17.5t47.5 -33.5t34 -51t13 -69q0 -44 -13.5 -81t-43.5 -63.5t-77.5 -41.5t-115.5 -15h-223v707zM314 68q37 0 69.5 5t57.5 19.5t39.5 39.5t14.5 66q0 72 -53 102 t-143 30h-111v-262h126zM310 396q68 0 101 31t33 89q0 72 -43 99.5t-123 27.5h-90v-247h122z" />
<glyph unicode="C" horiz-adv-x="677" d="M427 -12q-88 0 -156 26.5t-115 74.5t-71.5 114.5t-24.5 145.5q0 82 24.5 150t71.5 116.5t114 75t153 26.5q78 0 126.5 -13t78.5 -27l-25 -66q-19 7 -38 13t-40 10.5t-45.5 7.5t-54.5 3q-56 0 -106.5 -15.5t-89 -50t-61.5 -89t-23 -131.5q0 -79 24 -135.5t64.5 -92.5 t94.5 -52.5t115 -16.5q50 0 91.5 7t74.5 19l20 -66l-36.5 -12.5t-43.5 -11t-54 -7.5t-68 -3z" />
<glyph unicode="E" d="M106 707h396v-67h-314v-251h292v-68h-292v-253h337v-68h-419v707z" />
<glyph unicode="H" horiz-adv-x="764" d="M106 707h82v-318h388v318h82v-707h-82v321h-388v-321h-82v707z" />
<glyph unicode="I" horiz-adv-x="294" d="M106 707h82v-707h-82v707z" />
<glyph unicode="K" horiz-adv-x="628" d="M214 370v15l280 322h104l-293 -327l313 -380h-108zM106 707h82v-707h-82v707z" />
<glyph unicode="M" horiz-adv-x="942" d="M106 707h111l242 -658l272 658h105v-707h-83v475l4 109h-3l-238 -584h-119l-211 586h-3l5 -98v-488h-82v707z" />
<glyph unicode="O" horiz-adv-x="828" d="M406 -12q-83 0 -147 27t-108.5 75.5t-67.5 116t-23 148.5q0 83 25.5 150t73 114t114 72.5t147.5 25.5q85 0 150.5 -28t109 -77t66 -115.5t22.5 -143.5q0 -81 -25 -148t-71.5 -115.5t-113.5 -75t-152 -26.5zM409 56q70 0 122 23t86.5 63t51 94.5t16.5 117.5t-17.5 117 t-52 93.5t-84.5 62t-115 22.5q-68 0 -119.5 -22.5t-86 -62t-51.5 -93t-17 -115.5q0 -60 16.5 -114.5t50 -96t83.5 -65.5t117 -24z" />
<glyph unicode="P" horiz-adv-x="603" d="M106 707h230q106 0 167.5 -56.5t61.5 -164.5q0 -47 -16.5 -89t-51 -73.5t-87.5 -50t-126 -18.5h-33v69h39q42 0 76.5 9t59 27.5t38.5 48.5t14 72q0 81 -40 120t-124 39h-126v-640h-82v707z" />
<glyph unicode="T" horiz-adv-x="584" d="M251 637h-242v70h566v-70h-242v-637h-82v637z" />
<glyph unicode="X" horiz-adv-x="609" d="M259 374l-206 333h94l161 -267l172 267h89l-218 -331l234 -376h-96l-186 310l-199 -310h-94z" />
<glyph unicode="a" horiz-adv-x="552" d="M206 -9q-75 0 -119 39.5t-44 114.5q0 51 20 83t51 50t68 25t70 8l130 2v70q0 33 -8 54t-23.5 33t-39.5 16.5t-56 4.5q-45 0 -79.5 -7t-68.5 -20l-18 62q32 14 76.5 24t100.5 10q90 0 141.5 -35.5t51.5 -115.5v-302q0 -15 5.5 -25t14 -15.5t19 -7.5t20.5 -2l-3 -61 q-10 -2 -22 -2q-18 0 -35.5 4t-32 12t-24.5 21.5t-13 31.5q-10 -8 -26.5 -20t-39.5 -23.5t-52 -20t-64 -8.5zM224 55q45 0 86 19t72 42v142l-131 -5q-64 -2 -98 -29.5t-34 -75.5t30 -70.5t75 -22.5z" />
<glyph unicode="c" horiz-adv-x="497" d="M325 -12q-140 0 -206 67t-66 207q0 73 18 129t52 93.5t81.5 56.5t107.5 19q51 0 88 -11t57 -22l-24 -63q-17 7 -48 17t-73 10q-86 0 -132 -55t-46 -170q0 -51 10 -90t33.5 -65.5t61.5 -40.5t94 -14q36 0 60.5 5t50.5 12l12 -64q-25 -8 -55 -14.5t-76 -6.5z" />
<glyph unicode="e" horiz-adv-x="546" d="M313 -12q-60 0 -107.5 13.5t-81.5 45.5t-52 84.5t-18 130.5q0 80 18.5 136.5t50.5 92.5t75.5 52.5t93.5 16.5q105 0 153.5 -68t48.5 -205v-29h-360q1 -63 16.5 -102.5t41.5 -61.5t60.5 -30t73.5 -8q40 0 73.5 6.5t71.5 18.5l14 -64q-31 -13 -75.5 -21t-96.5 -8zM412 317 q0 84 -30.5 132.5t-97.5 48.5q-60 0 -101 -44.5t-48 -136.5h277z" />
<glyph unicode="o" horiz-adv-x="598" d="M296 -12q-113 0 -178 72t-65 207q0 71 18.5 125.5t51.5 92t80 56.5t104 19q117 0 177.5 -74t60.5 -210q0 -74 -19 -128t-52 -89.5t-78.5 -53t-99.5 -17.5zM301 53q49 0 81 19t50.5 50t25.5 70t7 79q0 39 -7 78.5t-25 72t-50 53t-82 20.5t-82.5 -20.5t-51.5 -52.5 t-26.5 -72t-7.5 -79q0 -42 8 -81.5t27.5 -69.5t52 -48.5t80.5 -18.5z" />
<glyph unicode="p" horiz-adv-x="590" d="M84 546h79v-45q36 25 73 41t87 16q99 0 156 -71t57 -205q0 -83 -22 -139t-58.5 -90t-85.5 -49t-103 -15q-26 0 -55.5 3t-48.5 6v-218h-79v766zM266 55q52 0 88.5 16.5t59 46t32.5 70.5t10 89q0 38 -7 76t-24 68.5t-45.5 49.5t-72.5 19q-24 0 -45.5 -5.5t-40 -13.5 t-33 -17l-25.5 -16v-372q12 -2 41.5 -6.5t61.5 -4.5z" />
<glyph unicode="x" horiz-adv-x="513" d="M212 279l-179 267h92l132 -211l133 211h88l-176 -265l190 -281h-95l-140 224l-142 -224h-93z" />
<glyph unicode="y" horiz-adv-x="511" d="M230 0h-37l-176 546h86l118 -390l31 -98l32 96l134 392h81l-267 -766h-76z" />
<glyph unicode="0" horiz-adv-x="688" d="M343 -12q-63 0 -115.5 17t-90.5 52t-59.5 88.5t-21.5 126.5q0 72 21.5 126t60 90t92 54t117.5 18q63 0 116 -19t90.5 -55t58.5 -89t21 -121q0 -74 -22 -128t-61 -89.5t-92 -53t-115 -17.5zM344 57q44 0 82 14t66 41.5t44 68.5t16 94q0 50 -15.5 90t-43 68.5t-65 43.5 t-82.5 15t-83 -13.5t-65.5 -40.5t-43.5 -68.5t-16 -97.5q0 -52 16 -92t44 -67.5t65.5 -41.5t80.5 -14z" />
<glyph unicode="1" horiz-adv-x="332" d="M159 491h-141v62l222 7v-560h-81v491z" />
<glyph unicode="2" horiz-adv-x="487" d="M37 65l50 41l63 51t66 57t59.5 59.5t43 57t16.5 51.5q0 63 -30.5 86t-83.5 23q-21 0 -42 -4t-38.5 -10t-31.5 -12.5l-22 -10.5l-27 59q9 6 25 14.5t38 15.5t48 12t54 5q55 0 91.5 -14.5t58.5 -38.5t31 -55.5t9 -65.5q0 -31 -13.5 -61.5t-36 -60.5t-51 -58t-59 -53 l-60 -47l-52.5 -39h299v-67h-405v65z" />
<glyph unicode="3" horiz-adv-x="474" d="M194 -167q-77 0 -120.5 10.5t-60.5 18.5l19 65q26 -9 63 -17.5t89 -8.5q30 0 59 4t51.5 17t36.5 37t14 65q0 30 -11.5 55t-32.5 44t-49.5 31.5t-62.5 18.5q-10 2 -19 2.5t-19 1.5v61q9 1 17.5 1.5t16.5 2.5q27 6 50.5 19.5t41 32t27.5 41.5t10 48q0 31 -11 52t-29 33.5 t-41 17.5t-47 5q-23 0 -43.5 -3t-35.5 -7t-24.5 -7.5t-10.5 -4.5l-23 58q23 11 59.5 21.5t87.5 10.5q43 0 78.5 -11t61 -32.5t39.5 -53t14 -72.5q0 -36 -12.5 -65t-32 -51.5t-42.5 -37t-44 -20.5q25 -7 53.5 -21.5t53.5 -37.5t41.5 -55t16.5 -72q0 -53 -18 -90t-48.5 -61 t-72.5 -35t-90 -11z" />
<glyph unicode="4" horiz-adv-x="574" d="M343 29h-315v66l267 451h128v-448h122v-69h-122v-190h-80v190zM343 98v401l-236 -401h236z" />
<glyph unicode="5" horiz-adv-x="515" d="M231 -170q-29 0 -55.5 2.5t-49 5.5t-40 7t-26.5 7l19 71q29 -8 68.5 -14t83.5 -6q34 0 62.5 9.5t49.5 27t32.5 43t11.5 57.5q0 42 -12 71t-33 47t-49.5 26t-60.5 8q-37 0 -75 -3t-72 -7v364h356v-68h-281v-223q24 3 45.5 4t44.5 1q49 0 89.5 -14.5t68.5 -41.5t43.5 -65.5 t15.5 -86.5q0 -54 -17.5 -95.5t-49 -69.5t-74.5 -42.5t-95 -14.5z" />
<glyph unicode="6" horiz-adv-x="579" d="M311 -12q-56 0 -99.5 15t-73.5 51.5t-46 97t-16 151.5q0 103 22.5 180.5t62.5 129t96 77t123 25.5q38 0 62.5 -4.5t38.5 -9.5l-16 -66q-14 5 -33.5 7.5t-51.5 2.5q-67 0 -110.5 -30t-69 -79t-36 -111.5t-10.5 -127.5q0 -58 7 -103t25.5 -75.5t50 -46.5t81.5 -16 q33 0 58 12.5t42.5 34.5t26.5 51t9 62q0 40 -10.5 68.5t-29.5 47t-45.5 27.5t-57.5 9q-20 0 -35 -2t-43 -7l-1 10v23q0 13 -1 23v10q19 5 39.5 8t50.5 3q54 0 94 -15.5t66 -43.5t39 -66.5t13 -84.5q0 -59 -16.5 -103.5t-46 -74.5t-70.5 -45t-89 -15z" />
<glyph unicode="7" horiz-adv-x="491" d="M85 -145l300 619h-348v72h428v-68l-309 -650z" />
<glyph unicode="8" horiz-adv-x="569" d="M282 -12q-51 0 -93 13t-72 36.5t-46.5 56.5t-16.5 74q0 39 14 69t37 53.5t52.5 42.5t60.5 37q-27 17 -51.5 35t-43.5 39.5t-30 46.5t-11 57q0 78 56.5 123.5t154.5 45.5q49 0 86 -14.5t61.5 -37.5t37 -52t12.5 -59q0 -33 -12 -59.5t-32 -48t-46 -40t-54 -35.5l62.5 -36.5 t54 -41t38 -51t14.5 -64.5q0 -44 -16 -79t-46.5 -60t-73.5 -38t-97 -13zM288 53q64 0 105 31t41 98q0 26 -13 47t-34.5 40t-49.5 35.5l-58 33.5q-29 -16 -55 -33t-46 -36.5t-32 -42.5t-12 -51q0 -59 43 -90.5t111 -31.5zM284 401q26 14 49 29t40.5 32.5t27.5 37.5t10 44 q0 21 -6.5 41t-20.5 35.5t-36.5 24.5t-55.5 9q-66 0 -99 -30t-33 -80q0 -24 10 -43.5t26.5 -37t39 -32.5t48.5 -30z" />
<glyph unicode="9" horiz-adv-x="580" d="M188 -165q-31 0 -54.5 4t-40.5 10l17 66q6 -2 29.5 -6t48.5 -4q79 0 125.5 28t71 75t31.5 110t7 132q0 47 -8.5 90.5t-27.5 76.5t-49.5 53t-74.5 20q-33 0 -58.5 -11.5t-43 -32t-26.5 -48.5t-9 -61q0 -48 11 -80t30 -50.5t45 -26.5t57 -8q22 0 42 3t39 8l5 -65 q-15 -5 -41.5 -9t-59.5 -4q-100 0 -154 57t-54 167q0 57 17 100t47 72t71 44t89 15q52 0 95.5 -20.5t74.5 -60t48 -98.5t17 -137q0 -114 -20.5 -192t-60.5 -126t-99 -69.5t-137 -21.5z" />
<glyph unicode="," horiz-adv-x="219" d="M43 -125q11 27 18.5 67t7.5 73v68h82v-37q0 -61 -12 -100.5t-28 -70.5h-68z" />
<glyph unicode="." horiz-adv-x="232" d="M69 94h95v-94h-95v94z" />
<glyph unicode=":" horiz-adv-x="294" d="M99 94h95v-94h-95v94zM99 546h95v-94h-95v94z" />
<glyph unicode=";" horiz-adv-x="292" d="M79 -125q9 25 17.5 61.5t8.5 70.5v76h84v-43q0 -59 -12.5 -97.5t-29.5 -67.5h-68zM97 546h95v-94h-95v94z" />
<glyph unicode="?" horiz-adv-x="377" d="M105 163q-10 18 -18.5 43t-8.5 50q0 33 12.5 59.5t32 48t41.5 40.5l41.5 36.5t32 36t12.5 39.5q0 33 -17.5 55.5t-45 37t-62.5 22.5t-70 11l16 68q45 -3 91 -14.5t83.5 -34t61.5 -57t24 -83.5q0 -31 -13.5 -56t-33.5 -47t-43 -41.5t-43 -39t-33.5 -40t-13.5 -43.5 q0 -17 6 -38.5t16 -40.5zM92 87h89v-87h-89v87z" />
<glyph unicode="&#xbf;" horiz-adv-x="368" d="M308 -164q-45 3 -91 14t-83.5 33t-61 57t-23.5 86q0 30 13.5 55.5t33.5 47t43.5 41.5t43.5 39.5t33.5 39.5t13.5 44q0 6 -2.5 16.5t-6 22t-7.5 22t-7 17.5l68 12q10 -20 18.5 -46.5t8.5 -44.5q0 -34 -12.5 -60.5t-32 -48.5t-41.5 -41l-41.5 -37t-32 -36.5t-12.5 -40.5 q0 -31 17 -53t45 -36.5t62.5 -23t69.5 -11.5zM200 546h90v-87h-90v87z" />
<glyph unicode="!" horiz-adv-x="288" d="M105 312v395h78v-395l-4 -140h-70zM99 87h90v-87h-90v87z" />
<glyph unicode="&#xa1;" horiz-adv-x="257" d="M90 233l3 140h71l3 -140v-395h-77v395zM84 545h90v-87h-90v87z" />
<glyph unicode="-" horiz-adv-x="493" d="M98 321h298v-69h-298v69z" />
<glyph unicode="&#xad;" horiz-adv-x="493" d="M98 321h298v-69h-298v69z" />
<glyph unicode="&#x2013;" horiz-adv-x="687" d="M98 319h491v-65h-491v65z" />
<glyph unicode="&#x2014;" horiz-adv-x="973" d="M98 319h778v-65h-778v65z" />
<glyph unicode="_" horiz-adv-x="613" d="M55 -96h503v-69h-503v69z" />
<glyph unicode="@" horiz-adv-x="783" d="M366 -71q-151 0 -230 88t-79 247q0 120 33 206t89 140.5t130.5 80.5t157.5 26q59 0 108 -16.5t84 -51t54.5 -88.5t19.5 -130q0 -75 -20 -129t-51.5 -88.5t-71 -50.5t-78.5 -16q-38 0 -57.5 18.5t-17.5 49.5q-9 -11 -23.5 -22t-30.5 -19.5t-32 -13.5t-28 -5q-21 0 -39 6 t-30.5 20.5t-19.5 38.5t-7 61q0 50 14 90.5t39.5 69.5t61.5 44.5t81 15.5q26 0 54.5 -5.5t51.5 -16.5l-27 -227q-2 -20 1.5 -32.5t17.5 -12.5q22 0 47 9.5t46.5 34.5t35.5 68.5t14 110.5q0 63 -15 106.5t-42 69.5t-64 37.5t-80 11.5q-65 0 -125.5 -19.5t-107 -64.5t-74 -118 t-27.5 -179q0 -76 17 -129t49.5 -86.5t78 -48.5t102.5 -15q38 0 79.5 5.5t71.5 12.5l13 -58q-44 -17 -83.5 -21.5t-90.5 -4.5zM337 218q15 0 30.5 6t28.5 14.5t23.5 17.5t16.5 16l21 168q-8 2 -16 3.5t-19 1.5q-32 0 -55.5 -12t-38.5 -33t-22.5 -50t-7.5 -63q0 -41 9.5 -55 t29.5 -14z" />
<glyph unicode="&#x26;" horiz-adv-x="675" d="M246 -8q-34 0 -68.5 8t-62 27.5t-45 52.5t-17.5 82q0 39 10.5 69t28.5 55t43 46.5t54 43.5q-17 40 -27 83.5t-10 87.5q0 31 9.5 60t29.5 51.5t51 36.5t74 14q39 0 66 -11.5t44 -30.5t25 -43.5t8 -51.5q0 -39 -18 -69t-45.5 -54.5t-61.5 -45.5l-65 -41q28 -62 71.5 -113.5 t96.5 -90.5t112.5 -64t121.5 -32l-10 -65q-58 5 -113.5 23t-106.5 48q-20 -17 -39.5 -30.5t-42 -24t-50 -16t-63.5 -5.5zM258 55q40 0 70.5 14t59.5 35q-115 86 -174 212q-38 -31 -62.5 -65.5t-24.5 -82.5q0 -33 12 -55t31 -35t42 -18t46 -5zM246 417l44 29t47 35t37 40.5 t15 45.5q0 38 -21.5 59.5t-56.5 21.5q-44 0 -67 -25.5t-23 -67.5q0 -34 6.5 -68.5t18.5 -69.5z" />
<glyph unicode="/" horiz-adv-x="430" d="M294 766h73l-232 -828h-74z" />
<glyph unicode="\" horiz-adv-x="430" d="M63 766h73l233 -828h-74z" />
<glyph unicode="|" horiz-adv-x="244" d="M85 754h74v-974h-74v974z" />
<glyph unicode="(" horiz-adv-x="355" d="M266 -221q-42 37 -81 85.5t-69.5 110.5t-48.5 138.5t-18 169.5q0 96 19.5 173t51 137t70 103t76.5 70l43 -48q-32 -28 -64.5 -66.5t-59 -91t-43.5 -121t-17 -156.5q0 -78 14 -144.5t39 -123t58.5 -103t71.5 -84.5z" />
<glyph unicode=")" horiz-adv-x="355" d="M46 -172q39 38 72 84.5t58 103t39 123t14 144.5q0 88 -17 156.5t-43.5 121t-59 91t-64.5 66.5l44 48q37 -27 75.5 -70t70 -103t51 -137t19.5 -173q0 -93 -18 -169.5t-48 -138.5t-69 -110.5t-81 -85.5z" />
<glyph unicode="[" horiz-adv-x="311" d="M85 754h179v-65h-102v-844h102v-65h-179v974z" />
<glyph unicode="]" horiz-adv-x="311" d="M46 -155h103v844h-103v65h180v-974h-180v65z" />
<glyph unicode="{" horiz-adv-x="350" d="M283 -220q-37 0 -70.5 5t-59.5 19.5t-41.5 41.5t-15.5 71q0 7 0.5 14t1.5 15l21 198q2 15 -3.5 31.5t-16.5 30t-27 22.5t-35 9v72q19 0 35 8.5t27 21.5t16.5 29.5t3.5 33.5l-21 206q-1 9 -1.5 18t0.5 17q2 38 17.5 63t40.5 40t58 21t70 6h22v-67h-25q-59 0 -85.5 -24 t-20.5 -79l20 -182q8 -63 -16 -98.5t-67 -46.5v-2q21 -8 38 -19.5t28 -29t16 -41.5t1 -55l-20 -183q-5 -51 22 -75t84 -24h25v-67h-22z" />
<glyph unicode="}" horiz-adv-x="350" d="M45 -220v67h24q57 0 84.5 24t22.5 75l-21 183q-7 62 18 96t66 49v2q-44 11 -67.5 46.5t-16.5 98.5l21 182q6 55 -21 79t-86 24h-24v67h22q37 0 70 -6t58 -21t40.5 -40t17.5 -63q1 -8 0.5 -17t-1.5 -18l-22 -206q-2 -17 3.5 -33.5t17 -29.5t27 -21.5t35.5 -8.5v-72 q-20 0 -36 -9t-27 -22.5t-16.5 -30t-3.5 -31.5l22 -198q1 -8 1.5 -15t0.5 -14q0 -44 -15.5 -71t-41.5 -41.5t-59.5 -19.5t-70.5 -5h-22z" />
<glyph unicode="&#xa7;" horiz-adv-x="656" d="M186 -66q-63 0 -114 39l28 66q15 -11 30 -19q13 -7 28.5 -12.5t29.5 -5.5q16 0 26 8.5t16 21.5t8 27.5t2 26.5q0 29 -5 59l-10 62l-8 50q-5 24 -7.5 49t-2.5 50q0 62 18 109.5t50.5 79.5t78 48.5t101.5 16.5q85 0 145 -43l-15 -31l-11.5 -22.5t-6.5 -11.5q-8 5 -21 12 t-28.5 13t-33.5 10t-35 4q-15 0 -24.5 -6.5t-15 -16.5t-7.5 -22.5t-2 -24.5q0 -19 1.5 -37t6.5 -36l15 -63q9 -38 13 -78.5t4 -73.5q0 -53 -18.5 -98t-51.5 -79t-80 -53t-104 -19zM290 16q36 27 57 66t21 89q0 26 -3 51.5t-8 50.5l-17 81q-5 23 -7.5 47.5t-2.5 49.5 q0 18 2.5 38.5t10.5 39.5q-19 -12 -31.5 -29.5t-19.5 -38t-10 -41.5t-3 -41q0 -23 2 -46.5t7 -44.5l15 -80q5 -21 7.5 -50.5t2.5 -51.5q0 -32 -6.5 -50.5t-16.5 -39.5z" />
<glyph unicode="&#x2022;" horiz-adv-x="394" d="M197 208q-30 0 -56.5 10.5t-46 30t-31 45.5t-11.5 58q0 31 11.5 58t31 46t46 30t56.5 11t56.5 -10.5t46 -29.5t31 -46t11.5 -59q0 -31 -11.5 -57t-31 -45.5t-46 -30.5t-56.5 -11z" />
<glyph unicode="#" horiz-adv-x="609" d="M140 151h-89v67h93l7 129h-100v67h105l7 152h75l-8 -152h169l7 152h75l-8 -152h84v-67h-88l-8 -129h96v-67h-99l-9 -151h-74l8 151h-168l-9 -151h-74zM387 218l7 129h-169l-7 -129h169z" />
<glyph unicode="%" horiz-adv-x="790" d="M201 387q-31 0 -58.5 9t-48.5 28t-33 49t-12 72q0 41 12.5 72.5t34 53t49.5 32.5t59 11t59 -8t49 -27t33 -50t12 -77q0 -39 -12.5 -70t-33.5 -52t-49.5 -32t-60.5 -11zM201 445q40 0 64.5 28t24.5 79q0 48 -21 77t-65 29q-35 0 -60 -27t-25 -86q0 -100 82 -100zM583 -9 q-31 0 -58.5 9t-48 28t-32.5 49t-12 72q0 41 12.5 72.5t33.5 53t49 32.5t59 11t59 -8t49 -26.5t33.5 -49.5t12.5 -77q0 -40 -12.5 -71t-34 -52t-50 -32t-60.5 -11zM583 50q41 0 65 28t24 79q0 48 -20.5 76.5t-65.5 28.5q-35 0 -59.5 -27t-24.5 -86q0 -49 19.5 -74t61.5 -25z M97 104l534 532l42 -45l-533 -533z" />
<glyph unicode="&#x2030;" horiz-adv-x="1150" d="M201 387q-31 0 -58.5 9t-48.5 28t-33 49t-12 72q0 41 12.5 72.5t34 53t49.5 32.5t59 11t59 -8t49 -27t33 -50t12 -77q0 -39 -12.5 -70t-33.5 -52t-49.5 -32t-60.5 -11zM201 445q40 0 64.5 28t24.5 79q0 48 -21 77t-65 29q-35 0 -60 -27t-25 -86q0 -100 82 -100zM583 -9 q-31 0 -58.5 9t-48 28t-32.5 49t-12 72q0 41 12.5 72.5t33.5 53t49 32.5t59 11t59 -8t49 -26.5t33.5 -49.5t12.5 -77q0 -40 -12.5 -71t-34 -52t-50 -32t-60.5 -11zM583 50q41 0 65 28t24 79q0 48 -20.5 76.5t-65.5 28.5q-35 0 -59.5 -27t-24.5 -86q0 -49 19.5 -74t61.5 -25z M945 -9q-31 0 -58.5 9t-48.5 28t-33 49t-12 72q0 41 12.5 72.5t34 53t49.5 32.5t59 11t59 -8t49 -26.5t33 -49.5t12 -77q0 -40 -12.5 -71t-33.5 -52t-49.5 -32t-60.5 -11zM945 50q40 0 64 28t24 79q0 48 -20.5 76.5t-64.5 28.5q-35 0 -60 -27t-25 -86q0 -49 19.5 -74 t62.5 -25zM97 104l534 532l42 -45l-533 -533z" />
<glyph unicode="&#x2020;" horiz-adv-x="482" d="M207 515l-168 -7v74l167 -6l-7 178h83l-6 -178l167 6v-74l-167 7l6 -515h-82z" />
<glyph unicode="'" horiz-adv-x="191" d="M60 753h72l-7 -238h-61z" />
<glyph unicode="&#x22;" horiz-adv-x="355" d="M60 753h69l-6 -238h-59zM227 753h69l-6 -238h-59z" />
<glyph unicode="&#x201c;" horiz-adv-x="338" d="M57 594q0 59 12 96t29 66h59q-11 -23 -19.5 -58.5t-8.5 -64.5v-78h-72v39zM204 594q0 59 11.5 96t28.5 66h59q-11 -23 -19 -58.5t-8 -64.5v-78h-72v39z" />
<glyph unicode="&#x201d;" horiz-adv-x="338" d="M48 554q10 23 18.5 58.5t8.5 64.5v78h72v-40q0 -59 -11.5 -95.5t-28.5 -65.5h-59zM194 554q11 23 19 58.5t8 64.5v78h72v-40q0 -59 -12 -95.5t-29 -65.5h-58z" />
<glyph unicode="&#x2018;" horiz-adv-x="191" d="M57 594q0 59 12 96t29 66h58q-10 -23 -18.5 -58.5t-8.5 -64.5v-78h-72v39z" />
<glyph unicode="&#x2019;" horiz-adv-x="192" d="M48 554q10 23 18.5 58.5t8.5 64.5v78h72v-40q0 -59 -11.5 -95.5t-28.5 -65.5h-59z" />
<glyph unicode="&#x2039;" horiz-adv-x="270" d="M50 272l106 220l59 -22l-87 -198l86 -195l-58 -25z" />
<glyph unicode="&#x203a;" horiz-adv-x="270" d="M56 79l86 193l-87 198l59 22l106 -220l-106 -220z" />
<glyph unicode="&#xab;" horiz-adv-x="447" d="M50 272l106 220l59 -22l-87 -198l86 -195l-58 -25zM227 272l107 220l58 -22l-87 -198l86 -195l-57 -25z" />
<glyph unicode="&#xbb;" horiz-adv-x="447" d="M56 77l86 195l-87 198l59 22l106 -220l-106 -220zM234 77l85 195l-87 198l59 22l107 -220l-107 -220z" />
<glyph unicode="*" horiz-adv-x="436" d="M47 526l108 44l18 -33l-91 -71zM47 643l36 60l91 -71l-19 -34zM200 522h38l15 -114h-71zM184 762h70l-15 -116h-39zM262 536l21 34l107 -43l-36 -62zM262 632l93 71l35 -60l-108 -43z" />
<glyph unicode="+" d="M251 270h-214v66l214 -1v222h69l-2 -223l228 2v-66h-227l1 -216h-69v216z" />
<glyph unicode="&#x3c;" horiz-adv-x="510" d="M47 254v99l403 192v-74l-352 -168l352 -164v-75z" />
<glyph unicode="=" horiz-adv-x="704" d="M105 232h494v-66h-494v66zM105 442h494v-66h-494v66z" />
<glyph unicode="&#x3e;" horiz-adv-x="510" d="M60 139l352 164l-352 168v74l403 -192v-99l-403 -190v75z" />
<glyph unicode="&#x401;" d="M106 0zM151 805l58 58l57 -58l-57 -58zM348 805l57 58l58 -58l-58 -58zM106 707h396v-67h-314v-251h292v-68h-292v-253h337v-68h-419v707z" />
<glyph unicode="&#x410;" horiz-adv-x="671" d="M0 0zM290 707h107l257 -707h-89l-94 264h-279l-105 -264h-87zM449 330l-110 319l-122 -319h232z" />
<glyph unicode="&#x411;" horiz-adv-x="626" d="M106 707h424v-67h-342v-573h135q83 0 124 38.5t41 106.5q0 41 -14 68.5t-39 44.5t-60 24.5t-77 7.5h-50v68h50q135 0 206 -52.5t71 -164.5q0 -47 -16 -85t-46 -65.5t-74 -42.5t-100 -15h-233v707z" />
<glyph unicode="&#x412;" horiz-adv-x="636" d="M106 0zM106 707h193q60 0 103.5 -13.5t71 -37t41 -56t13.5 -71.5q0 -57 -26.5 -97.5t-71.5 -56.5v-3q28 -5 54.5 -17.5t47.5 -33.5t34 -51t13 -69q0 -44 -13.5 -81t-43.5 -63.5t-77.5 -41.5t-115.5 -15h-223v707zM314 68q37 0 69.5 5t57.5 19.5t39.5 39.5t14.5 66 q0 72 -53 102t-143 30h-111v-262h126zM310 396q68 0 101 31t33 89q0 72 -43 99.5t-123 27.5h-90v-247h122z" />
<glyph unicode="&#x413;" horiz-adv-x="528" d="M106 707h416v-67h-334v-640h-82v707z" />
<glyph unicode="&#x414;" horiz-adv-x="725" d="M12 68h61q14 25 26.5 51l23.5 50.5t19.5 47t14.5 40.5q7 20 15.5 60.5t17.5 98t16.5 131.5t12.5 160h371v-639h93v-221h-81v153h-510v-153h-80v221zM507 68v572h-215q-13 -162 -30 -260.5t-25 -128.5q-6 -22 -13 -42t-15.5 -42t-19 -46t-24.5 -53h342z" />
<glyph unicode="&#x415;" d="M106 0zM106 707h396v-67h-314v-251h292v-68h-292v-253h337v-68h-419v707z" />
<glyph unicode="&#x416;" horiz-adv-x="917" d="M298 375l-260 332h102l252 -329v-15l-272 -363h-107zM525 363v15l253 329h101l-260 -332l285 -375h-107zM417 707h83v-707h-83v707z" />
<glyph unicode="&#x417;" horiz-adv-x="553" d="M243 -8q-76 0 -125.5 14.5t-81.5 29.5l29 66q35 -17 79.5 -28t93.5 -11q35 0 66 7t54 22.5t36.5 41t13.5 62.5q0 36 -14 60t-38.5 38.5t-57.5 21t-71 6.5h-74v67h74q69 0 110 34t41 97q0 60 -36.5 91.5t-101.5 31.5q-48 0 -84 -11t-65 -22l-26 59q33 15 77 28.5t106 13.5 q52 0 92 -13.5t67 -36.5t41 -55t14 -69q0 -43 -13 -73.5t-30.5 -51.5t-36 -33t-29.5 -18v-2q12 -3 35.5 -11.5t46.5 -26.5t40.5 -48t17.5 -76q0 -36 -12.5 -72.5t-41.5 -66t-77 -48t-119 -18.5z" />
<glyph unicode="&#x418;" horiz-adv-x="780" d="M106 707h82v-496l-3 -106l63 105l344 497h82v-707h-82v496l3 106l-42 -70l-365 -532h-82v707z" />
<glyph unicode="&#x419;" horiz-adv-x="780" d="M106 0zM392 759q-53 0 -95.5 22t-72.5 62l42 41q32 -36 66 -47t60 -11t60 11t66 47l41 -41q-29 -40 -71.5 -62t-95.5 -22zM106 707h82v-496l-3 -106l63 105l344 497h82v-707h-82v496l3 106l-42 -70l-365 -532h-82v707z" />
<glyph unicode="&#x41a;" horiz-adv-x="628" d="M106 0zM214 370v15l280 322h104l-293 -327l313 -380h-108zM106 707h82v-707h-82v707z" />
<glyph unicode="&#x41b;" horiz-adv-x="686" d="M4 53q40 18 74.5 46.5t50.5 60.5q24 49 42.5 187t30.5 360h378v-707h-82v640h-221q-17 -189 -32 -319t-50 -205q-23 -47 -62 -80.5t-92 -57.5z" />
<glyph unicode="&#x41c;" horiz-adv-x="942" d="M106 0zM106 707h111l242 -658l272 658h105v-707h-83v475l4 109h-3l-238 -584h-119l-211 586h-3l5 -98v-488h-82v707z" />
<glyph unicode="&#x41d;" horiz-adv-x="764" d="M106 0zM106 707h82v-318h388v318h82v-707h-82v321h-388v-321h-82v707z" />
<glyph unicode="&#x41e;" horiz-adv-x="828" d="M60 0zM406 -12q-83 0 -147 27t-108.5 75.5t-67.5 116t-23 148.5q0 83 25.5 150t73 114t114 72.5t147.5 25.5q85 0 150.5 -28t109 -77t66 -115.5t22.5 -143.5q0 -81 -25 -148t-71.5 -115.5t-113.5 -75t-152 -26.5zM409 56q70 0 122 23t86.5 63t51 94.5t16.5 117.5 t-17.5 117t-52 93.5t-84.5 62t-115 22.5q-68 0 -119.5 -22.5t-86 -62t-51.5 -93t-17 -115.5q0 -60 16.5 -114.5t50 -96t83.5 -65.5t117 -24z" />
<glyph unicode="&#x41f;" horiz-adv-x="754" d="M106 707h542v-707h-82v639h-378v-639h-82v707z" />
<glyph unicode="&#x420;" horiz-adv-x="603" d="M106 0zM106 707h230q106 0 167.5 -56.5t61.5 -164.5q0 -47 -16.5 -89t-51 -73.5t-87.5 -50t-126 -18.5h-33v69h39q42 0 76.5 9t59 27.5t38.5 48.5t14 72q0 81 -40 120t-124 39h-126v-640h-82v707z" />
<glyph unicode="&#x421;" horiz-adv-x="677" d="M60 0zM427 -12q-88 0 -156 26.5t-115 74.5t-71.5 114.5t-24.5 145.5q0 82 24.5 150t71.5 116.5t114 75t153 26.5q78 0 126.5 -13t78.5 -27l-25 -66q-19 7 -38 13t-40 10.5t-45.5 7.5t-54.5 3q-56 0 -106.5 -15.5t-89 -50t-61.5 -89t-23 -131.5q0 -79 24 -135.5 t64.5 -92.5t94.5 -52.5t115 -16.5q50 0 91.5 7t74.5 19l20 -66l-36.5 -12.5t-43.5 -11t-54 -7.5t-68 -3z" />
<glyph unicode="&#x422;" horiz-adv-x="584" d="M9 0zM251 637h-242v70h566v-70h-242v-637h-82v637z" />
<glyph unicode="&#x423;" horiz-adv-x="573" d="M131 63q23 7 43 16t37.5 23t32.5 34.5t28 51.5l14 32h-37l-243 487h91l213 -430l170 430h90l-226 -527q-22 -51 -41.5 -82.5t-41 -51t-46 -31.5t-55.5 -24z" />
<glyph unicode="&#x424;" horiz-adv-x="804" d="M361 85q-69 0 -127 17.5t-100 53.5t-65.5 90t-23.5 127t23.5 127t65.5 90t100 53.5t127 17.5v76h82v-76q69 0 127 -17.5t100 -53.5t65.5 -90t23.5 -127t-23.5 -127t-65.5 -90t-100 -53.5t-127 -17.5v-85h-82v85zM443 151q109 0 171 57t62 165q0 109 -62 165.5t-171 56.5 v-444zM361 595q-109 0 -172 -56.5t-63 -165.5q0 -108 63 -165t172 -57v444z" />
<glyph unicode="&#x425;" horiz-adv-x="609" d="M10 0zM259 374l-206 333h94l161 -267l172 267h89l-218 -331l234 -376h-96l-186 310l-199 -310h-94z" />
<glyph unicode="&#x426;" horiz-adv-x="775" d="M652 0h-546v707h82v-639h369v639h82v-639h93v-221h-80v153z" />
<glyph unicode="&#x427;" horiz-adv-x="653" d="M465 323q-47 -19 -101 -30.5t-102 -11.5q-64 0 -104.5 15.5t-64 41.5t-32.5 59.5t-9 69.5v240h82v-241q0 -41 16.5 -64.5t40.5 -35t51.5 -14.5t49.5 -3q32 0 80.5 11.5t92.5 35.5v311h82v-707h-82v323z" />
<glyph unicode="&#x428;" horiz-adv-x="1010" d="M106 707h82v-639h276v639h82v-639h275v639h83v-707h-798v707z" />
<glyph unicode="&#x429;" horiz-adv-x="1039" d="M916 0h-810v707h82v-639h276v639h82v-639h275v639h83v-639h93v-221h-81v153z" />
<glyph unicode="&#x42a;" horiz-adv-x="703" d="M207 638h-195v69h278v-640h126q82 0 123 40t41 109q0 41 -14 69t-39 45.5t-59.5 25t-75.5 7.5h-41v69h40q134 0 204.5 -54.5t70.5 -165.5q0 -47 -15.5 -86t-45.5 -67t-73.5 -43.5t-99.5 -15.5h-225v638z" />
<glyph unicode="&#x42b;" horiz-adv-x="863" d="M106 0zM675 707h82v-707h-82v707zM106 707h83v-640h126q82 0 122.5 40.5t40.5 109.5q0 41 -14 69t-38.5 45t-59 24.5t-76.5 7.5h-37v69h37q134 0 204.5 -54t70.5 -165q0 -47 -15.5 -86t-45.5 -67t-73.5 -44t-99.5 -16h-225v707z" />
<glyph unicode="&#x42c;" horiz-adv-x="602" d="M106 707h83v-640h126q82 0 122.5 40.5t40.5 109.5q0 41 -14 69t-38.5 45t-59 24.5t-76.5 7.5h-37v69h37q134 0 204.5 -54t70.5 -165q0 -47 -15.5 -86t-45.5 -67t-73.5 -44t-99.5 -16h-225v707z" />
<glyph unicode="&#x42d;" horiz-adv-x="677" d="M251 -10q-44 0 -77.5 3t-58.5 7.5t-41.5 9.5t-26.5 9l21 66q29 -9 72 -16.5t93 -7.5q58 0 109.5 15t91.5 46.5t65.5 81t30.5 118.5h-373v67h373q-5 69 -29.5 117.5t-62 79t-85.5 44t-100 13.5q-74 0 -116 -10.5t-63 -17.5l-23 66q6 3 20.5 8.5t39.5 11t60.5 10t83.5 4.5 q87 0 154.5 -24.5t113.5 -71t70 -112.5t24 -150q0 -79 -24.5 -146.5t-71 -116.5t-114.5 -76.5t-156 -27.5z" />
<glyph unicode="&#x42e;" horiz-adv-x="1097" d="M674 -12q-78 0 -140 24t-106 68t-69.5 105.5t-29.5 135.5h-141v-321h-82v707h82v-318h142q5 76 33.5 137t76 103.5t112 65t141.5 22.5q85 0 149.5 -27.5t107.5 -76.5t64.5 -115.5t21.5 -144.5q0 -82 -25 -149t-71.5 -115t-113.5 -74.5t-152 -26.5zM677 56q70 0 122 23 t86.5 63t51 94.5t16.5 117.5t-17.5 117t-51.5 93.5t-84.5 62t-115.5 22.5q-68 0 -119.5 -22.5t-86 -62t-51.5 -93t-17 -115.5q0 -60 16.5 -114.5t50 -96t83.5 -65.5t117 -24z" />
<glyph unicode="&#x42f;" horiz-adv-x="661" d="M28 56q25 7 43.5 15.5t34 23t31 37t35.5 57.5l65 113q-67 17 -104 66.5t-37 121.5q0 52 17 92.5t48 68t72.5 42t91.5 14.5h230v-707h-83v281h-95q-32 0 -59 3l-86 -152q-39 -69 -81.5 -102.5t-106.5 -40.5zM472 347v293h-123q-79 0 -123 -37.5t-44 -112.5q0 -40 14 -67 t39 -44t60 -24.5t76 -7.5h101z" />
<glyph unicode="&#x430;" horiz-adv-x="552" d="M43 0zM206 -9q-75 0 -119 39.5t-44 114.5q0 51 20 83t51 50t68 25t70 8l130 2v70q0 33 -8 54t-23.5 33t-39.5 16.5t-56 4.5q-45 0 -79.5 -7t-68.5 -20l-18 62q32 14 76.5 24t100.5 10q90 0 141.5 -35.5t51.5 -115.5v-302q0 -15 5.5 -25t14 -15.5t19 -7.5t20.5 -2l-3 -61 q-10 -2 -22 -2q-18 0 -35.5 4t-32 12t-24.5 21.5t-13 31.5q-10 -8 -26.5 -20t-39.5 -23.5t-52 -20t-64 -8.5zM224 55q45 0 86 19t72 42v142l-131 -5q-64 -2 -98 -29.5t-34 -75.5t30 -70.5t75 -22.5z" />
<glyph unicode="&#x431;" horiz-adv-x="608" d="M301 -9q-55 0 -98.5 18t-73.5 57t-45.5 99.5t-15.5 144.5q0 40 4 90.5t13 99t23.5 90t35.5 62.5q20 20 55 36.5t82.5 30.5t104.5 26.5l121 25.5l14 -73l-110 -21t-96 -21t-73.5 -23t-42.5 -25q-11 -12 -19 -30.5t-13.5 -39.5t-9 -43l-6.5 -41q35 20 83 36.5t106 16.5 q48 0 87 -12.5t67 -40.5t43.5 -72.5t15.5 -108.5q0 -73 -19.5 -126t-53 -87.5t-79.5 -51.5t-100 -17zM307 56q49 0 81.5 19t51.5 49.5t26.5 69t7.5 77.5q0 36 -8 67.5t-26 55t-46.5 37t-68.5 13.5q-54 0 -94.5 -16t-82.5 -38q-1 -15 -1.5 -32t-0.5 -32q0 -138 39 -204 t122 -66z" />
<glyph unicode="&#x432;" horiz-adv-x="546" d="M84 546h198q91 0 137.5 -36.5t46.5 -100.5q0 -45 -22.5 -76.5t-56.5 -44.5q21 -3 40.5 -13t34.5 -27t24 -40t9 -51q0 -70 -51 -113.5t-152 -43.5h-208v546zM274 65q27 0 52 3.5t44.5 13.5t31.5 27.5t12 46.5q0 28 -10.5 46.5t-30.5 29.5t-49 15.5t-66 4.5h-95v-187h111z M274 310q60 0 87 24t27 65q0 48 -34.5 65t-94.5 17h-96v-171h111z" />
<glyph unicode="&#x433;" horiz-adv-x="436" d="M84 546h340v-67h-261v-479h-79v546z" />
<glyph unicode="&#x434;" horiz-adv-x="618" d="M17 66h54q13 21 23 41t18.5 40.5t15 42l14.5 47.5q4 16 9.5 48.5t10.5 74.5t8.5 90t5.5 96h329v-480h78v-213h-74v147h-418v-147h-74v213zM427 66v414h-181q-9 -98 -17 -164.5t-19 -110.5q-9 -35 -21 -66.5t-32 -72.5h270z" />
<glyph unicode="&#x435;" horiz-adv-x="546" d="M54 0zM313 -12q-60 0 -107.5 13.5t-81.5 45.5t-52 84.5t-18 130.5q0 80 18.5 136.5t50.5 92.5t75.5 52.5t93.5 16.5q105 0 153.5 -68t48.5 -205v-29h-360q1 -63 16.5 -102.5t41.5 -61.5t60.5 -30t73.5 -8q40 0 73.5 6.5t71.5 18.5l14 -64q-31 -13 -75.5 -21t-96.5 -8z M412 317q0 84 -30.5 132.5t-97.5 48.5q-60 0 -101 -44.5t-48 -136.5h277z" />
<glyph unicode="&#x436;" horiz-adv-x="771" d="M733 -8q-14 1 -29.5 4t-34 13.5t-40 30.5t-46.5 53l-144 189l206 264h91l-206 -260l99 -133q36 -48 68 -71.5t54 -30.5zM20 51q22 7 54 30.5t68 71.5l100 133l-207 260h91l206 -264l-144 -189q-26 -33 -47 -53t-39 -30.5t-34 -13.5t-30 -4zM346 546h79v-546h-79v546z" />
<glyph unicode="&#x437;" horiz-adv-x="460" d="M209 -9q-46 0 -91 9.5t-87 30.5l26 63q33 -17 70.5 -27t78.5 -10q25 0 46.5 6t38 18t26 31t9.5 45q0 27 -11 44.5t-29.5 28t-43 15t-51.5 4.5h-59v62h58q31 0 53 8.5t35.5 22.5t19.5 31t6 34q0 37 -25 61t-77 24q-39 0 -70 -8.5t-57 -19.5l-20 59q34 17 76.5 26t81.5 9 q46 0 78.5 -12t53 -31.5t30 -44.5t9.5 -50q0 -50 -25.5 -83.5t-61.5 -48.5q19 -4 38.5 -13.5t36 -26t27 -40t10.5 -55.5q0 -29 -10.5 -57.5t-34.5 -52t-62 -38t-93 -14.5z" />
<glyph unicode="&#x438;" horiz-adv-x="629" d="M84 546h79v-373l-2 -69l42 70l263 372h79v-546h-79v372l3 69l-43 -70l-263 -371h-79v546z" />
<glyph unicode="&#x439;" horiz-adv-x="629" d="M84 0zM317 652q-50 0 -91 24t-67 63l38 41q29 -35 60 -48t60 -13t59.5 13t60.5 48l38 -41q-26 -39 -67 -63t-91 -24zM84 546h79v-373l-2 -69l42 70l263 372h79v-546h-79v372l3 69l-43 -70l-263 -371h-79v546z" />
<glyph unicode="&#x43a;" horiz-adv-x="537" d="M507 -8q-14 1 -31 4.5t-37.5 14.5t-44.5 30.5t-51 51.5l-157 190l221 263h92l-225 -259l116 -134q39 -45 73.5 -70t60.5 -32zM84 546h79v-546h-79v546z" />
<glyph unicode="&#x43b;" horiz-adv-x="581" d="M9 51q28 12 55.5 30.5t45.5 53.5q13 24 23 65t17.5 94.5t12.5 117t7 134.5h327v-546h-79v480h-176q-11 -146 -25.5 -239t-42.5 -147q-23 -42 -56.5 -68.5t-82.5 -42.5z" />
<glyph unicode="&#x43c;" horiz-adv-x="747" d="M84 546h110l171 -493l191 493h106v-546h-76v365l4 89l-173 -454h-106l-155 455l4 -90v-365h-76v546z" />
<glyph unicode="&#x43d;" horiz-adv-x="609" d="M84 546h79v-239h283v239h79v-546h-79v240h-283v-240h-79v546z" />
<glyph unicode="&#x43e;" horiz-adv-x="598" d="M53 0zM296 -12q-113 0 -178 72t-65 207q0 71 18.5 125.5t51.5 92t80 56.5t104 19q117 0 177.5 -74t60.5 -210q0 -74 -19 -128t-52 -89.5t-78.5 -53t-99.5 -17.5zM301 53q49 0 81 19t50.5 50t25.5 70t7 79q0 39 -7 78.5t-25 72t-50 53t-82 20.5t-82.5 -20.5t-51.5 -52.5 t-26.5 -72t-7.5 -79q0 -42 8 -81.5t27.5 -69.5t52 -48.5t80.5 -18.5z" />
<glyph unicode="&#x43f;" horiz-adv-x="599" d="M84 546h431v-546h-79v480h-273v-480h-79v546z" />
<glyph unicode="&#x440;" horiz-adv-x="590" d="M84 0zM84 546h79v-45q36 25 73 41t87 16q99 0 156 -71t57 -205q0 -83 -22 -139t-58.5 -90t-85.5 -49t-103 -15q-26 0 -55.5 3t-48.5 6v-218h-79v766zM266 55q52 0 88.5 16.5t59 46t32.5 70.5t10 89q0 38 -7 76t-24 68.5t-45.5 49.5t-72.5 19q-24 0 -45.5 -5.5t-40 -13.5 t-33 -17l-25.5 -16v-372q12 -2 41.5 -6.5t61.5 -4.5z" />
<glyph unicode="&#x441;" horiz-adv-x="497" d="M53 0zM325 -12q-140 0 -206 67t-66 207q0 73 18 129t52 93.5t81.5 56.5t107.5 19q51 0 88 -11t57 -22l-24 -63q-17 7 -48 17t-73 10q-86 0 -132 -55t-46 -170q0 -51 10 -90t33.5 -65.5t61.5 -40.5t94 -14q36 0 60.5 5t50.5 12l12 -64q-25 -8 -55 -14.5t-76 -6.5z" />
<glyph unicode="&#x442;" horiz-adv-x="479" d="M201 479h-186v67h450v-67h-186v-479h-78v479z" />
<glyph unicode="&#x443;" horiz-adv-x="511" d="M17 0zM230 0h-37l-176 546h86l118 -390l31 -98l32 96l134 392h81l-267 -766h-76z" />
<glyph unicode="&#x444;" horiz-adv-x="760" d="M341 -8q-62 0 -115 15.5t-91.5 49.5t-60 87.5t-21.5 129.5t22 129.5t61 88t91.5 50.5t113.5 16v196h78v-196q62 0 115 -16t91.5 -50t60 -87.5t21.5 -129.5q0 -77 -22.5 -130.5t-61.5 -87.5t-91.5 -49.5t-112.5 -15.5v-212h-78v212zM419 56q108 0 158 59t50 160 q0 99 -50 158t-158 60v-437zM341 493q-55 0 -94 -15.5t-64.5 -44t-37.5 -69t-12 -90.5t12 -90.5t37.5 -69t65 -44t93.5 -15.5v438z" />
<glyph unicode="&#x445;" horiz-adv-x="501" d="M17 0zM207 279l-179 267h92l132 -211l133 211h88l-176 -265l190 -281h-95l-140 224l-142 -224h-93z" />
<glyph unicode="&#x446;" horiz-adv-x="626" d="M517 0h-433v546h79v-480h272v480h78v-480h78v-213h-74v147z" />
<glyph unicode="&#x447;" horiz-adv-x="540" d="M377 239q-37 -11 -75.5 -19.5t-88.5 -8.5t-82.5 11t-51.5 32t-26.5 50.5t-7.5 66.5v175h79v-166q0 -23 4 -41.5t16 -32t35 -21t61 -7.5q42 0 75 8.5t62 18.5v241h78v-546h-78v239z" />
<glyph unicode="&#x448;" horiz-adv-x="843" d="M84 546h79v-480h219v480h79v-480h219v480h79v-546h-675v546z" />
<glyph unicode="&#x449;" horiz-adv-x="872" d="M763 0h-679v546h79v-480h219v480h79v-480h219v480h79v-480h78v-213h-74v147z" />
<glyph unicode="&#x44a;" horiz-adv-x="608" d="M176 479h-160v67h238v-479h120q56 0 88 27t32 78q0 29 -11 49.5t-29.5 33t-44.5 18.5t-56 6h-66v67h73q102 0 158.5 -44t56.5 -131q0 -37 -12 -68t-34.5 -54t-55 -36t-72.5 -13h-225v479z" />
<glyph unicode="&#x44b;" horiz-adv-x="730" d="M84 546h79v-479h120q56 0 86.5 27t30.5 78q0 58 -39 82.5t-100 24.5h-68v67h75q103 0 158 -44t55 -131q0 -37 -12 -68t-34 -54t-53.5 -36t-71.5 -13h-226v546zM565 546h80v-546h-80v546z" />
<glyph unicode="&#x44c;" horiz-adv-x="517" d="M84 546h79v-479h120q56 0 87.5 27t31.5 78q0 58 -40 82.5t-101 24.5h-68v67h75q103 0 159 -44t56 -131q0 -37 -12 -68t-34.5 -54t-54.5 -36t-72 -13h-226v546z" />
<glyph unicode="&#x44d;" horiz-adv-x="499" d="M191 -11q-51 0 -90.5 12t-63.5 24l25 61q19 -9 49.5 -20.5t76.5 -11.5q45 0 77 15t53.5 41t33 60.5t13.5 73.5h-228v66h228q-3 34 -12.5 67.5t-28.5 59t-49.5 41.5t-73.5 16q-46 0 -79 -10.5t-52 -18.5l-25 62q28 13 67 22.5t91 9.5q121 0 182 -72.5t61 -212.5 q0 -69 -19.5 -122t-53.5 -89t-80.5 -55t-101.5 -19z" />
<glyph unicode="&#x44e;" horiz-adv-x="823" d="M521 -9q-109 0 -173 63.5t-70 185.5h-115v-240h-79v546h79v-239h116q5 61 25.5 108t53.5 78.5t76 48t93 16.5q123 0 183 -73.5t60 -211.5q0 -72 -19 -125t-52.5 -88t-79 -52t-98.5 -17zM526 56q49 0 81 18.5t50.5 49t25.5 69.5t7 80q0 38 -7 77t-25.5 71t-50.5 52.5 t-83 20.5q-50 0 -82 -20t-51 -52t-26.5 -71.5t-7.5 -78.5q0 -43 8.5 -82t28 -69t52 -47.5t80.5 -17.5z" />
<glyph unicode="&#x44f;" horiz-adv-x="551" d="M27 57q20 4 35.5 10.5t28.5 16.5t25.5 24.5t26.5 34.5l7 11l15 24.5l15 25t7 12.5q-48 15 -77 54t-29 95q0 42 15 76t41 57t62.5 35.5t78.5 12.5h188v-546h-78v197h-103q-11 0 -18 1l-70 -108q-21 -31 -42 -49.5t-41.5 -28.5t-39 -13.5t-35.5 -4.5zM388 258v221h-106 q-60 0 -90.5 -29.5t-30.5 -85.5q0 -29 11 -49t29.5 -32.5t43.5 -18.5t53 -6h90z" />
<glyph unicode="&#x451;" horiz-adv-x="546" d="M54 0zM120 716l56 56l56 -56l-56 -57zM317 716l56 56l56 -56l-56 -57zM313 -12q-60 0 -107.5 13.5t-81.5 45.5t-52 84.5t-18 130.5q0 80 18.5 136.5t50.5 92.5t75.5 52.5t93.5 16.5q105 0 153.5 -68t48.5 -205v-29h-360q1 -63 16.5 -102.5t41.5 -61.5t60.5 -30t73.5 -8 q40 0 73.5 6.5t71.5 18.5l14 -64q-31 -13 -75.5 -21t-96.5 -8zM412 317q0 84 -30.5 132.5t-97.5 48.5q-60 0 -101 -44.5t-48 -136.5h277z" />
<glyph unicode="&#xa8;" horiz-adv-x="408" d="M50 716l56 56l56 -56l-56 -57zM247 716l56 56l56 -56l-56 -57z" />
<glyph horiz-adv-x="520" d="M118 805l58 58l57 -58l-57 -58zM315 805l57 58l58 -58l-58 -58z" />
<glyph horiz-adv-x="775" d="M396 759q-53 0 -95.5 22t-72.5 62l42 41q32 -36 66 -47t60 -11t60 11t66 47l41 -41q-29 -40 -71.5 -62t-95.5 -22z" />
<glyph horiz-adv-x="647" d="M324 658q-50 0 -91 24t-67 63l38 41q29 -35 60 -48t60 -13t59.5 13t60.5 48l38 -41q-26 -39 -67 -63t-91 -24z" />
<glyph unicode="&#x2122;" horiz-adv-x="789" d="M338 707h80l105 -299l117 299h77v-355h-61l1 262l-103 -262h-66l-91 263l1 -263h-60v355zM140 653h-117v54h294v-54h-117v-301h-60v301z" />
<glyph unicode="&#xae;" horiz-adv-x="555" d="M509 532q0 -53 -18 -94.5t-49 -69.5t-73 -42.5t-90 -14.5q-39 0 -80 11t-75 37t-56 68.5t-22 104.5q0 54 18 95.5t49.5 70t73.5 43.5t91 15q42 0 83 -12t74 -39t53.5 -69.5t20.5 -103.5zM463 532q0 48 -16 82t-42 56.5t-59 33t-67 10.5q-37 0 -71 -10t-59.5 -31.5 t-40.5 -55.5t-15 -81q0 -59 21.5 -95t51.5 -55.5t62.5 -26t55.5 -6.5q37 0 70 11.5t57 34.5t38 56t14 77zM394 417q-23 1 -40.5 6.5t-31.5 20.5q-16 16 -29 36l-22 34h-34v-91h-47v242h90q38 0 61 -18t23 -57q0 -47 -45 -68q6 -8 15.5 -22.5t20.5 -25.5t21.5 -15l23.5 -9z M319 589q0 22 -10 32t-36 10h-36v-84h31q26 0 38.5 9.5t12.5 32.5z" />
<glyph unicode="&#xa9;" horiz-adv-x="817" d="M434 73q-52 0 -91.5 15.5t-66 43t-40 65t-13.5 81.5q0 47 13 86t39.5 66.5t65.5 42.5t91 15q38 0 67 -7t52 -21l-20 -47q-26 11 -46 15.5t-52 4.5q-30 0 -57 -8.5t-47.5 -26.5t-32.5 -46.5t-12 -68.5t13 -69t34.5 -48t51 -28t62.5 -9q24 0 46 4.5t47 12.5l17 -49 q-31 -13 -58.5 -18.5t-62.5 -5.5zM400 -91q-82 0 -146 27t-108.5 75t-67.5 115.5t-23 148.5q0 84 26.5 151t74.5 114t115 72t148 25q85 0 149.5 -28t107.5 -76.5t64.5 -115t21.5 -144.5q0 -82 -25 -149t-71.5 -115t-113.5 -74t-152 -26zM403 -37q75 0 131 24t93 66t55 98.5 t18 122.5t-19 122.5t-56 98t-91 65t-124 23.5q-72 0 -127 -23.5t-91.5 -65t-55 -97.5t-18.5 -121q0 -63 17.5 -119.5t53 -99.5t89 -68.5t125.5 -25.5z" />
<glyph unicode="&#x20ac;" horiz-adv-x="590" d="M385 -10q-110 0 -180.5 50.5t-96.5 135.5h-63v55h53q-1 9 -1.5 18.5t-0.5 19.5q0 27 3 51h-54v55h66q26 84 95 132t176 48q50 0 87.5 -7.5t79.5 -23.5l-22 -63q-39 12 -71 18.5t-72 6.5q-62 1 -113.5 -25.5t-76.5 -85.5h251v-55h-266q-3 -21 -3 -43q0 -25 3 -46h266v-55 h-250q26 -63 81 -91t123 -28q38 0 72 7t61 15l20 -62q-21 -8 -59.5 -17.5t-107.5 -9.5z" />
<glyph unicode="$" horiz-adv-x="501" d="M212 -5q-61 2 -103.5 14.5t-66.5 23.5l26 64q42 -15 81 -24.5t86 -9.5q26 0 50.5 3.5t43 13t30 26t11.5 42.5q0 18 -10.5 31.5t-26 24t-34.5 18.5l-36 15l-65.5 26t-64 34t-48.5 48.5t-19 69.5q0 30 11 52.5t30.5 39t46.5 26.5t58 15l-1 96h71l-2 -93q51 -2 84.5 -9.5 t65.5 -20.5l-22 -60q-38 11 -70 17.5t-74 6.5q-51 0 -83.5 -15t-32.5 -54q0 -18 10 -32.5t25 -25.5t33 -19.5t35 -15.5q29 -13 64.5 -27t66 -33.5t51 -46t20.5 -63.5q0 -39 -14 -67t-37.5 -47t-55 -29t-66.5 -13l3 -96h-72z" />
<glyph unicode="&#xa2;" horiz-adv-x="477" d="M246 33q-59 6 -98.5 25.5t-63.5 50.5t-34 73.5t-10 95.5q0 47 13 87t39 71t64.5 50.5t89.5 24.5l-3 82h81l-2 -80q29 -2 59 -11t45 -20l-23 -55q-23 9 -51.5 15.5t-67.5 6.5q-72 0 -117.5 -40.5t-45.5 -133.5q0 -47 9 -80.5t31 -55.5t59 -32.5t93 -10.5q28 0 54 3.5 t52 8.5l12 -61q-29 -8 -55 -11.5t-54 -5.5l3 -75h-82z" />
<glyph unicode="&#xa3;" horiz-adv-x="477" d="M57 67q21 9 36 26t25 38t15 42.5t5 39.5h-95v66h97q0 29 -1 48.5t-1 39.5q0 63 20 101t54.5 58.5t80.5 27.5t99 9l5 -68q-40 -3 -74 -8.5t-58 -18.5t-36.5 -38t-10.5 -67q0 -13 0.5 -21.5t0.5 -17.5v-45h177v-66h-182q-2 -46 -21 -85t-46 -61h287v-67h-377v67z" />
<glyph unicode="&#xa5;" horiz-adv-x="625" d="M438 320h128v-68h-168l-34 -61l-18 -44h220v-67h-220v-80h-78l-1 80h-208v68h209l-17 42l-33 62h-159v68h122l-120 226h88l161 -317l169 317h85z" />
<glyph unicode="&#xa4;" horiz-adv-x="543" d="M58 179l69 67q-15 19 -25 47t-10 59t9 59t25 47l-68 68l39 38l70 -70q21 13 48.5 22.5t55.5 9.5t55 -7t50 -23l68 69l40 -40l-68 -67q17 -19 25.5 -47t8.5 -59t-9 -59.5t-26 -47.5l67 -68l-37 -39l-70 69q-22 -12 -49 -20t-55 -8t-54.5 8t-48.5 22l-71 -70zM271 242 q58 0 84 32t26 78q1 46 -26.5 78.5t-83.5 32.5t-83.5 -32.5t-27.5 -78.5t28.5 -78t82.5 -32z" />
<glyph horiz-adv-x="0" d="M0 0z" />
</font>
</defs>
</svg>
